<?xml version="1.0" encoding="UTF-8" standalone="no"?>
<!-- Created with Inkscape (http://www.inkscape.org/) -->

<svg
   xmlns:dc="http://purl.org/dc/elements/1.1/"
   xmlns:cc="http://creativecommons.org/ns#"
   xmlns:rdf="http://www.w3.org/1999/02/22-rdf-syntax-ns#"
   xmlns:svg="http://www.w3.org/2000/svg"
   xmlns="http://www.w3.org/2000/svg"
   xmlns:xlink="http://www.w3.org/1999/xlink"
   xmlns:sodipodi="http://sodipodi.sourceforge.net/DTD/sodipodi-0.dtd"
   xmlns:inkscape="http://www.inkscape.org/namespaces/inkscape"
   width="210mm"
   height="297mm"
   viewBox="0 0 744.09448819 1052.3622047"
   id="svg2"
   version="1.1"
   inkscape:version="0.91 r13725"
   sodipodi:docname="duck.svg">
  <defs
     id="defs4">
    <clipPath
       clipPathUnits="userSpaceOnUse"
       id="clipPath4263">
      <use
         x="0"
         y="0"
         xlink:href="#path4256"
         id="use4265"
         transform="translate(1515.4286,-5.7142857)"
         width="100%"
         height="100%" />
    </clipPath>
  </defs>
  <sodipodi:namedview
     id="base"
     pagecolor="#ffffff"
     bordercolor="#666666"
     borderopacity="1.0"
     inkscape:pageopacity="0.0"
     inkscape:pageshadow="2"
     inkscape:zoom="0.49497475"
     inkscape:cx="-584.48904"
     inkscape:cy="665.74694"
     inkscape:document-units="px"
     inkscape:current-layer="layer1"
     showgrid="false"
     inkscape:snap-bbox="false"
     inkscape:object-nodes="true"
     inkscape:window-width="1855"
     inkscape:window-height="1056"
     inkscape:window-x="65"
     inkscape:window-y="24"
     inkscape:window-maximized="1" />
  <metadata
     id="metadata7">
    <rdf:RDF>
      <cc:Work
         rdf:about="">
        <dc:format>image/svg+xml</dc:format>
        <dc:type
           rdf:resource="http://purl.org/dc/dcmitype/StillImage" />
        <dc:title></dc:title>
      </cc:Work>
    </rdf:RDF>
  </metadata>
  <g
     inkscape:groupmode="layer"
     id="layer2"
     inkscape:label="Image"
     style="display:none"
     sodipodi:insensitive="true">
    <image
       sodipodi:absref="/home/andrew/Education/2016-Winter-CalPoly/cpe300/cover_sheet/Salvadorina_waigiuensis_1895.jpg"
       xlink:href="Salvadorina_waigiuensis_1895.jpg"
       width="2181.5625"
       height="1579.6875"
       preserveAspectRatio="none"
       id="image4198"
       x="-602.20984"
       y="-166.05298" />
  </g>
  <g
     inkscape:groupmode="layer"
     id="layer3"
     inkscape:label="Duck"
     style="display:none"
     sodipodi:insensitive="true">
    <path
       id="path4209"
       style="fill:#000000;fill-rule:evenodd;stroke:#000000;stroke-width:1px;stroke-linecap:butt;stroke-linejoin:miter;stroke-opacity:1"
       d="m 278.8021,1203.38 c -1.06041,-0.9948 31.31205,0.3008 60.10408,0.5051 m 185.36299,-196.9798 -26.76904,7.5762 c -4.38032,47.9793 -18.12785,55.7347 -33.84011,55.0533 2.51122,-3.5497 7.13818,-4.9836 2.0203,-16.1624 l -1.51523,-23.7386 -12.6269,5.5558 c -7.21735,20.1482 -2.59927,33.7953 -55.05332,78.7919 0.0294,26.0328 -0.95056,59.9587 -57.57869,89.9036 24.22328,2.6912 43.59339,8.7795 61.11423,16.1624 35.81547,-5.393 66.03279,-0.9892 88.38835,17.1726 10.97811,3.5727 13.53539,-19.32 20.20305,-29.2944 l 17.67767,-98.995 c 2.29487,-22.4687 -3.1202,-33.4799 -3.03046,-48.9924 l 0,-7.071 c 8.64976,-6.5458 4.01035,-27.119 1.01015,-45.962 z M -245,89.50506 c 1.78103,-7.190496 8.57629,-13.733312 15.71429,-15.714285 51.5453,-14.305106 85.24067,-13.603966 123.57142,-28.214286 16.916269,-6.447881 48.928576,-23.571429 48.928576,-23.571429 21.797798,-30.5387971 37.100858,-64.397127 100,-73.928571 47.96338,-7.268147 95.813864,-5.963752 164.642854,61.4285712 32.60498,31.9244188 48.44085,79.9753488 56.07143,124.9999998 15.96892,94.22542 -29.17328,164.17481 -84.28571,211.07143 -5.49821,30.21139 -14.63734,56.46199 20,78.57143 9.66138,3.68366 79.87734,-16.99856 121.5135,-24.04923 40.24928,-6.81581 82.87552,-10.29795 129.20078,-5.23649 63.34028,-10.74744 135.82435,0.16309 212.14286,24.64286 74.02688,23.74471 150.72041,70.80337 225.35714,112.85714 34.78518,19.59957 77.53313,55.64165 120.71426,89.64286 l -5.3571,2.85714 5.3571,3.57143 -13.21426,-0.71428 c 0,0 5.27016,4.36109 8.21426,6.07143 9.6784,5.62254 30.7143,13.57142 30.7143,13.57142 21.3567,9.43666 42.5098,10.44527 63.2143,10.71429 32.8969,7.8189 50.5169,7.45379 133.5714,42.14286 l -120.7143,14.64285 c 34.1571,14.75759 68.4163,29.45557 91.4286,50.71429 l -8.2143,2.5 -127.5,-49.28571 -31.0714,6.42857 c 37.5156,16.2899 87.8398,43.54827 134.8193,67.41028 43.3248,22.00574 84.1071,41.12298 102.4678,46.08531 l 18.6879,5.05076 c 68.3671,18.4775 134.4483,41.21167 179.8071,63.63961 l -20.203,1.01016 31.8198,21.71828 -54.0432,6.06091 7.5761,17.67767 -43.4365,1.51523 -9.0914,6.56599 -49.4975,1.51523 -5.5558,4.54569 -86.368,3.53553 -18.6879,2.52538 -43.9416,-2.52538 -30.8097,-6.06091 -33.8401,2.0203 -76.7716,-19.1929 c -65.0285,10.56025 -115.70206,8.20106 -172.23097,11.11168 -20.00389,1.79754 -40.27979,4.81908 -61.6193,12.62691 -69.24633,33.25222 -146.13549,37.20692 -226.77925,26.76904 l 0,8.58628 c 17.52107,37.7289 20.90668,65.5317 -5.55584,112.3795 -15.67706,27.7538 -10.23783,85.9177 -12.12183,85.1053 15.07637,13.6321 31.05775,31.3368 47.47717,51.0127 1.35607,5.9766 12.25681,13.3662 -3.03046,22.2234 -0.42922,-4.7899 -0.0703,-10.3679 -3.03046,-12.6269 l -13.13198,-5.5558 c 0.67205,0.2843 -26.91737,-1.7768 -32.32488,-25.7589 l -3.03046,34.8502 c -2.07921,2.3391 -75.93151,41.1731 -113.13708,52.7805 -37.14329,11.588 -78.46707,20.3617 -106.82364,20.4555 -33.13892,0.1097 -99.24748,5.8084 -99.24748,5.8084 l -6.06092,-14.3946 -7.57614,3.0304 c -3.33958,2.8621 -3.7087,5.7242 -4.54569,8.5863 l -5.05076,-1.5152 c 3.29367,-10.5852 10.43318,-13.4788 16.16244,-19.1929 l 5.55584,-6.0609 c -2.89854,0.4055 27.83563,-37.4463 -15.15229,-47.9822 l -3.03046,-8.0813 c -4.57742,1.7568 -7.92382,7.2066 -11.61675,11.6168 0.97281,-5.0525 -2.28172,-8.5677 12.62691,-18.6878 l 30.80965,-2.0203 c 17.50719,-0.2117 51.02333,-22.1455 16.16244,-32.3249 -3.28833,-0.9602 -6.14732,0.677 -13.63706,8.0812 -4.35825,-7.8546 -6.84584,-15.5014 12.62691,-20.7081 l 18.18274,-5.0508 -43.43656,-7.5761 -5.05076,-9.5965 c -8.86507,1.4917 -15.51908,8.5111 -21.71828,16.6675 -4.00566,-11.5087 2.99927,-20.8153 19.1929,-28.2842 l -6.56599,-29.7995 c -6.13091,-1.7403 -13.79637,2.6575 -21.21321,6.0609 -1.9687,-10.5005 6.51495,-15.4264 24.74874,-15.1523 39.43235,3.2398 77.40822,-15.3678 114.14724,-52.5279 l 55.05331,-61.6193 c 5.32537,-10.5307 8.4626,-22.62442 22.72844,-26.76909 l 37.88072,-13.13198 C 444.57596,986.47559 375.85779,965.17119 310.09228,929.16845 250.20026,896.3811 193.44656,849.59363 172.23101,834.67433 114.15848,793.83627 55.170468,760.9698 13.131983,707.39511 -28.17623,654.75109 -61.187883,590.99453 -71.312925,525.27179 c -7.037569,-45.68162 0.388383,-89.51972 14.290069,-133.60011 7.638139,-24.21952 27.157151,-50.97124 41.870568,-71.67007 28.382714,-39.9288 102.941661,-101.70813 103.035559,-101.52033 0.773329,1.54666 24.614569,-31.20508 0,-48.9924 -3.858231,-2.78809 -25.81126,-14.7409 -27.274118,-15.15229 -39.875341,-11.21385 -64.4023777,-5.80376 -118.335781,-43.16608 1.701374,-2.32005 -117.327262,6.8334 -182.689682,-6.83647 -5.06418,-1.05912 -5.8276,-9.806994 -4.58369,-14.82898 z"
       inkscape:connector-curvature="0"
       sodipodi:nodetypes="cccccccccccccccccssscsssccscssccccsccccccccssscccccccccccccccccccscccccccssccccccccccccsccccccccccccccssssssssscss"
       clip-path="none" />
  </g>
  <g
     inkscape:label="Layer 1"
     inkscape:groupmode="layer"
     id="layer1"
     style="display:inline">
    <circle
       style="fill:none;stroke:#000000;stroke-width:4.3260757;stroke-miterlimit:4;stroke-dasharray:none;stroke-dashoffset:0"
       id="path4256"
       cx="-1582.5714"
       cy="279.50507"
       r="490" />
    <path
       clip-path="url(#clipPath4263)"
       sodipodi:nodetypes="cccccccccccccccccssscsssccscssccccsccccccccssscccccccccccccccccccscccccccssccccccccccccsccccccccccccccssssssssscss"
       inkscape:connector-curvature="0"
       d="m 278.8021,1203.38 c -1.06041,-0.9948 31.31205,0.3008 60.10408,0.5051 m 185.36299,-196.9798 -26.76904,7.5762 c -4.38032,47.9793 -18.12785,55.7347 -33.84011,55.0533 2.51122,-3.5497 7.13818,-4.9836 2.0203,-16.1624 l -1.51523,-23.7386 -12.6269,5.5558 c -7.21735,20.1482 -2.59927,33.7953 -55.05332,78.7919 0.0294,26.0328 -0.95056,59.9587 -57.57869,89.9036 24.22328,2.6912 43.59339,8.7795 61.11423,16.1624 35.81547,-5.393 66.03279,-0.9892 88.38835,17.1726 10.97811,3.5727 13.53539,-19.32 20.20305,-29.2944 l 17.67767,-98.995 c 2.29487,-22.4687 -3.1202,-33.4799 -3.03046,-48.9924 l 0,-7.071 c 8.64976,-6.5458 4.01035,-27.119 1.01015,-45.962 z M -245,89.50506 c 1.78103,-7.190496 8.57629,-13.733312 15.71429,-15.714285 51.5453,-14.305106 85.24067,-13.603966 123.57142,-28.214286 16.916269,-6.447881 48.928576,-23.571429 48.928576,-23.571429 21.797798,-30.5387971 37.100858,-64.397127 100,-73.928571 47.96338,-7.268147 95.813864,-5.963752 164.642854,61.4285712 32.60498,31.9244188 48.44085,79.9753488 56.07143,124.9999998 15.96892,94.22542 -29.17328,164.17481 -84.28571,211.07143 -5.49821,30.21139 -14.63734,56.46199 20,78.57143 9.66138,3.68366 79.87734,-16.99856 121.5135,-24.04923 40.24928,-6.81581 82.87552,-10.29795 129.20078,-5.23649 63.34028,-10.74744 135.82435,0.16309 212.14286,24.64286 74.02688,23.74471 150.72041,70.80337 225.35714,112.85714 34.78518,19.59957 77.53313,55.64165 120.71426,89.64286 l -5.3571,2.85714 5.3571,3.57143 -13.21426,-0.71428 c 0,0 5.27016,4.36109 8.21426,6.07143 9.6784,5.62254 30.7143,13.57142 30.7143,13.57142 21.3567,9.43666 42.5098,10.44527 63.2143,10.71429 32.8969,7.8189 50.5169,7.45379 133.5714,42.14286 l -120.7143,14.64285 c 34.1571,14.75759 68.4163,29.45557 91.4286,50.71429 l -8.2143,2.5 -127.5,-49.28571 -31.0714,6.42857 c 37.5156,16.2899 87.8398,43.54827 134.8193,67.41028 43.3248,22.00574 84.1071,41.12298 102.4678,46.08531 l 18.6879,5.05076 c 68.3671,18.4775 134.4483,41.21167 179.8071,63.63961 l -20.203,1.01016 31.8198,21.71828 -54.0432,6.06091 7.5761,17.67767 -43.4365,1.51523 -9.0914,6.56599 -49.4975,1.51523 -5.5558,4.54569 -86.368,3.53553 -18.6879,2.52538 -43.9416,-2.52538 -30.8097,-6.06091 -33.8401,2.0203 -76.7716,-19.1929 c -65.0285,10.56025 -115.70206,8.20106 -172.23097,11.11168 -20.00389,1.79754 -40.27979,4.81908 -61.6193,12.62691 -69.24633,33.25222 -146.13549,37.20692 -226.77925,26.76904 l 0,8.58628 c 17.52107,37.7289 20.90668,65.5317 -5.55584,112.3795 -15.67706,27.7538 -10.23783,85.9177 -12.12183,85.1053 15.07637,13.6321 31.05775,31.3368 47.47717,51.0127 1.35607,5.9766 12.25681,13.3662 -3.03046,22.2234 -0.42922,-4.7899 -0.0703,-10.3679 -3.03046,-12.6269 l -13.13198,-5.5558 c 0.67205,0.2843 -26.91737,-1.7768 -32.32488,-25.7589 l -3.03046,34.8502 c -2.07921,2.3391 -75.93151,41.1731 -113.13708,52.7805 -37.14329,11.588 -78.46707,20.3617 -106.82364,20.4555 -33.13892,0.1097 -99.24748,5.8084 -99.24748,5.8084 l -6.06092,-14.3946 -7.57614,3.0304 c -3.33958,2.8621 -3.7087,5.7242 -4.54569,8.5863 l -5.05076,-1.5152 c 3.29367,-10.5852 10.43318,-13.4788 16.16244,-19.1929 l 5.55584,-6.0609 c -2.89854,0.4055 27.83563,-37.4463 -15.15229,-47.9822 l -3.03046,-8.0813 c -4.57742,1.7568 -7.92382,7.2066 -11.61675,11.6168 0.97281,-5.0525 -2.28172,-8.5677 12.62691,-18.6878 l 30.80965,-2.0203 c 17.50719,-0.2117 51.02333,-22.1455 16.16244,-32.3249 -3.28833,-0.9602 -6.14732,0.677 -13.63706,8.0812 -4.35825,-7.8546 -6.84584,-15.5014 12.62691,-20.7081 l 18.18274,-5.0508 -43.43656,-7.5761 -5.05076,-9.5965 c -8.86507,1.4917 -15.51908,8.5111 -21.71828,16.6675 -4.00566,-11.5087 2.99927,-20.8153 19.1929,-28.2842 l -6.56599,-29.7995 c -6.13091,-1.7403 -13.79637,2.6575 -21.21321,6.0609 -1.9687,-10.5005 6.51495,-15.4264 24.74874,-15.1523 39.43235,3.2398 77.40822,-15.3678 114.14724,-52.5279 l 55.05331,-61.6193 c 5.32537,-10.5307 8.4626,-22.62442 22.72844,-26.76909 l 37.88072,-13.13198 C 444.57596,986.47559 375.85779,965.17119 310.09228,929.16845 250.20026,896.3811 193.44656,849.59363 172.23101,834.67433 114.15848,793.83627 55.170468,760.9698 13.131983,707.39511 -28.17623,654.75109 -61.187883,590.99453 -71.312925,525.27179 c -7.037569,-45.68162 0.388383,-89.51972 14.290069,-133.60011 7.638139,-24.21952 27.157151,-50.97124 41.870568,-71.67007 28.382714,-39.9288 102.941661,-101.70813 103.035559,-101.52033 0.773329,1.54666 24.614569,-31.20508 0,-48.9924 -3.858231,-2.78809 -25.81126,-14.7409 -27.274118,-15.15229 -39.875341,-11.21385 -64.4023777,-5.80376 -118.335781,-43.16608 1.701374,-2.32005 -117.327262,6.8334 -182.689682,-6.83647 -5.06418,-1.05912 -5.8276,-9.806994 -4.58369,-14.82898 z"
       style="display:inline;fill:#000000;fill-rule:evenodd;stroke:#000000;stroke-width:1px;stroke-linecap:butt;stroke-linejoin:miter;stroke-opacity:1"
       id="path4260" />
    <use
       x="0"
       y="0"
       xlink:href="#path4256"
       id="use4267"
       transform="translate(1517.1429,-8.5714286)"
       width="100%"
       height="100%"
       style="stroke:#000000;stroke-width:1.29146787" />
    <circle
       r="608.21606"
       cy="270.93362"
       cx="-65.428513"
       id="circle4271"
       style="fill:none;stroke:#000000;stroke-width:10.10417557;stroke-miterlimit:4;stroke-dasharray:none;stroke-dashoffset:0" />
  </g>
</svg>
